<?xml version="1.0" encoding="utf-8"?>
<!-- Generator: Adobe Illustrator 26.3.1, SVG Export Plug-In . SVG Version: 6.00 Build 0)  -->
<svg version="1.1" id="Ebene_1" xmlns="http://www.w3.org/2000/svg" xmlns:xlink="http://www.w3.org/1999/xlink" x="0px" y="0px"
	 viewBox="0 0 595.28 841.89" style="enable-background:new 0 0 595.28 841.89;" xml:space="preserve">
<style type="text/css">
	.st0{fill:#FFFFFF;}
	.st1{fill:#084698;}
</style>
<path d="M297.43,94.51c-151.36,0-274.04,122.69-274.04,274.04S146.08,642.6,297.43,642.6s274.04-122.69,274.04-274.04
	S448.79,94.51,297.43,94.51z M297.62,569.64c-110.88,0-201.08-90.23-201.08-201.08c0-110.91,90.2-201.08,201.08-201.08
	c110.91,0,201.11,90.17,201.11,201.08C498.73,479.4,408.53,569.64,297.62,569.64z"/>
<path d="M405.82,306.17c0.16,2.34-0.57,4.23-2.24,5.87c-3.22,3.16-6.72,5.94-10.7,8.11c-1.14,0.63-2.3,1.52-3.13,2.56
	c-4.1,5.27-9.12,9.57-14.52,13.42c-1.83,1.29-3.5,2.78-5.21,4.17c-0.25,0.19-0.6,0.41-0.6,0.63l-10.89,10.51
	c0,0-2.15,1.07-2.75,2.68c-0.63,1.61-4.64,15.12-5.56,16.39l-0.98,1.86c-1.7,2.9-2.62,6.09-3.28,9.35
	c-0.19,0.85-0.44,1.58-1.29,1.67c-0.73,0.06-1.67-0.03-2.18-0.47c-0.6-0.47-0.88-1.39-1.2-2.15c-0.35-0.85-0.51-1.77-0.85-2.62
	c-1.33-3.22-2.08-6.38,0.35-9.53c0.66-0.82,0.92-2.12,1.01-3.22c0.22-2.94-0.98-5.46-2.81-7.7c-0.69-0.82-1.36-1.64-2.05-2.43
	c-2.84-3.28-1.33-6.88,1.2-9.31c0.57-0.54,1.74-0.6,2.65-0.6c1.48,0,2.97,0.22,4.45,0.28c0.41,0,0.98-0.19,1.26-0.47
	c1.33-1.36,2.65-2.75,3.88-4.2c0.73-0.85,1.23-1.86,1.86-2.75c0.54-0.79,0.82-1.33,1.04-1.7l0.19-0.19l0.19-0.22l0.03-0.03
	l0.79-0.98l0.6-0.66l4.04-4.93l-5.84,4.23l-7.92,0.6l-0.38,0.03c-0.88,0-1.74,0.09-2.65,0.19c-2.9,0.38-5.87,0.6-8.78,1.07
	c-0.95,0.19-2.05,0.79-2.65,1.52c-2.68,3.25-5.78,5.81-9.95,6.85c-1.86,0.47-3.22,1.55-4.29,3.19c-1.67,2.59-3.5,5.08-5.37,7.51
	c-1.33,1.7-1.29,3.73-1.77,5.68c-0.22,0.82-0.47,1.64-0.47,2.49c-0.03,1.17-0.09,2.46,0.32,3.44c2.65,5.84,4.39,12.06,7.74,17.52
	c0.51,0.82,0.32,1.29-0.47,1.74c-3.22,1.74-6.31,3.6-8.97,6.16c-0.66,0.6-1.61,0.95-2.43,1.33c-3.38,1.55-6.79,3-10.17,4.55
	c-0.44,0.22-0.85,0.85-0.95,1.36c-0.98,4.55-1.52,9.12-1.36,13.86c0.22,6.47-1.74,12.5-4.48,18.34c-0.63,1.29-1.2,2.65-1.64,4.01
	c-0.19,0.54-0.09,1.2,0.06,1.74c1.74,6.35,1.7,12.88,1.17,19.32c-0.32,4.07-1.58,8.02-2.37,12.03c-0.6,2.94-1.17,5.94-1.74,8.9
	c-0.06,0.25-0.13,0.54-0.06,0.76c1.17,3.6-0.19,6.98-0.79,10.42c-0.92,5.53-0.73,10.99,0,16.48c0.13,0.98,0.85,2.02,1.55,2.87
	c0.95,1.17,1.42,2.34,0.95,3.85c-0.51,1.45-1.1,2.87-1.33,4.39c-0.38,2.24-0.54,4.48-0.76,6.72c-0.35,3.6-0.69,7.23-1.07,10.83
	c-0.03,0.25-0.13,0.6-0.32,0.66c-1.29,0.47-0.98,1.52-0.92,2.46c0.13,2.9,0.38,5.81,0.32,8.71c0,1.1-0.6,2.24-1.07,3.32
	c-0.44,1.14-1.2,2.15-1.52,3.32c-0.54,1.7-1.33,2.49-3.09,2.59c-0.95,0.09-1.86,0.25-2.78,0.38c-0.35,0.03-0.69,0.09-1.04,0.03
	c-2.18-0.6-4.39-1.14-6.6-1.77c-0.57-0.19-1.33-0.54-1.55-1.01c-0.6-1.42-1.74-2.15-3.06-2.72c-1.39-0.66-1.96-2.02-1.58-3.54
	c0.54-2.12,0.88-4.26,1.48-6.35c0.47-1.48,1.17-2.9,1.8-4.36c0.82-1.77,1.61-3.47,0.98-5.49c-0.16-0.44,0.19-1.04,0.35-1.55
	c1.74-4.67,3.73-9.25,5.05-14.05c0.63-2.3,0.38-4.86,1.17-7.23c0.13-0.38-0.06-0.85-0.13-1.26c-0.09-0.76-0.35-1.52-0.25-2.27
	c0.54-4.23-0.35-8.3-1.26-12.38c-0.57-2.49-0.92-5.02-1.36-7.55c0-0.16-0.09-0.38,0-0.54c1.26-2.68-0.09-5.34-0.41-7.96
	c-0.76-6.12-2.24-12.22-2.46-18.37c-0.32-7.48-0.47-15.15,2.21-22.42c0.76-2.08,0.28-4.14,0.06-6.19c-0.28-2.34-0.63-4.64-0.88-7.01
	c-0.32-2.4,0.13-4.77,1.2-6.95c1.07-2.12,0.88-4.26,0.57-6.57c-1.74,0.13-1.7,0.13-1.8-1.52c-0.19-2.62-0.35-5.3-0.51-7.92
	c-0.03-0.16,0-0.38-0.09-0.51c-1.86-2.46-1.17-5.3-1.17-8.05c-0.03-1.83-0.28-3.69-0.54-5.53c-0.66-4.42-1.55-8.81-2.05-13.26
	c-0.57-5.24-0.88-10.55-1.29-15.82c-0.03-0.35-0.09-0.69-0.19-1.01c-0.32-1.36-0.13-2.4,1.01-3.41c2.87-2.53,2.97-2.65,1.86-6.41
	c-0.85-2.94-2.12-5.75-3.35-8.56c-0.57-1.29-0.69-2.37,0.32-3.38c2.37-2.34,0.85-4.74,0-7.07c-0.19-0.51-1.01-0.79-1.61-1.17
	c-0.69-0.41-1.48-0.69-2.08-1.2c-0.44-0.35-0.92-1.1-0.82-1.55c0.28-1.42-0.38-2.3-1.29-3.13c-3.66-3.28-7.32-6.57-10.99-9.82
	c-3.32-2.97-6.82-5.75-9.95-8.87c-2.94-2.9-5.43-6.25-8.15-9.38c-2.21-2.56-4.45-5.05-6.57-7.67c-0.98-1.2-1.74-2.62-2.75-4.14
	l-1.99-4.14c-1.7-3.35-2.72-6.6-5.08-9.22c-2.27-2.56-3-6.03-3.47-9.35c-0.44-3.03-0.38-6.12-0.35-9.19c0-0.88,0.47-1.99,1.14-2.62
	c2.15-2.12,4.48-4.1,6.76-6.06c2.18-1.89,4.83-1.61,7.42-1.45c2.27,0.13,4.61,0.57,6.88,0.44c2.65-0.16,4.23-2.34,6.12-3.88
	c2.46-2.08,3.13-4.93,3.82-7.86c0.98-4.23,2.15-8.4,3.35-12.57c1.1-3.85,1.17-3.85,0.6-7.99c-0.25,0.03-0.47,0.06-0.69,0.13
	c-4.48,1.64-8.97,3.28-13.42,4.89c-2.56,0.92-5.08,1.74-7.64,2.53c-1.7,0.54-2.65,1.45-2.97,3.35c-0.85,4.77-2.18,9.47-2.9,14.27
	c-0.38,2.27-1.42,3.41-3.35,4.33c-2.24,1.1-4.55,2.3-6.47,3.82c-1.89,1.48-3.35,3.5-5.02,5.27c-0.41,0.44-0.79,0.95-1.2,1.45
	c-0.6-0.76-0.6-0.76,0.22-2.21c0.41-0.66,0.82-1.36,1.14-1.93c-0.47-0.22-1.04-0.28-1.23-0.6c-0.19-0.32-0.03-0.88,0.13-1.26
	c0.35-0.66,0.76-1.26,0.95-2.05c-0.73,1.01-1.42,2.05-2.24,3c-0.28,0.32-0.85,0.41-1.33,0.6c0.03-0.47-0.09-1.04,0.13-1.42
	c0.57-0.88,1.29-1.67,1.89-2.56c0.6-0.88,1.14-1.83,1.55-2.81c-1.39,0.95-1.8,2.81-3.35,3.6c-0.13-0.09-0.28-0.19-0.41-0.28
	c0.51-1.2,1.07-2.37,1.61-3.57l-0.13-0.13c-0.92,1.01-1.86,1.99-2.78,3c-0.57,0.57-1.04,0.98-1.71,0c-0.22-0.32-0.76-0.44-1.17-0.6
	c-0.82-0.32-1.2-0.92-0.76-1.7c1.14-2.02,2.34-4.04,3.57-6.03c0.22-0.35,0.76-0.57,1.2-0.63c2.87-0.47,5.3-1.89,7.61-3.5
	c0.73-0.47,1.48-0.88,2.15-1.42c0.51-0.44,0.98-0.98,1.26-1.58c1.74-3.73,3.41-7.51,5.18-11.21c0.19-0.47,0.88-0.98,1.33-0.98
	c4.74-0.03,8.56-2.65,12.79-4.17c4.8-1.67,9.63-3.19,14.37-5.02c1.96-0.73,3.63-2.15,5.4-3.32c0.28-0.19,0.44-0.63,0.6-0.95
	c0.98-1.64,1.64-3.54,2.9-4.93c2.05-2.24,4.39-4.29,6.76-6.25c1.64-1.36,3.82-1.36,5.78-1.2c3.13,0.22,6.22,0.85,9.35,1.33
	c1.2,0.19,2.37,0.47,3.63,0.69c-0.16,0.54-0.25,0.85-0.41,1.26c0.88,0.51,1.8,0.98,2.65,1.52c0.66,0.41,1.61,0.54,1.36,1.7
	c-0.06,0.13,0.44,0.41,0.69,0.57c1.23,0.69,2.56,1.29,3.66,2.15c0.92,0.69,1.7,1.64,2.4,2.62c0.79,1.1,0.88,2.3,0,3.54
	c-0.51,0.73-0.51,1.45-0.03,2.34c0.85,1.64,1.55,3.41,0.98,5.27c-0.22,0.76-0.95,1.42-1.42,2.12c-0.19,0.28-0.41,0.51-0.54,0.82
	c-0.19,0.38-0.28,0.82-0.28,1.26c-0.09,2.49-0.76,4.64-3.44,5.46c0.35,1.48,0.66,2.78,0.98,4.1c0.19,0.69,0.09,1.36-0.69,1.52
	c-1.61,0.35-1.77,1.52-1.8,2.81c-0.03,0.88,0.06,1.89-1.2,2.27c-0.28,0.09-0.57,0.79-0.57,1.23c0,1.2-0.47,2.02-1.67,2.24
	c-1.11,0.19-1.48,0.88-1.74,1.89c-0.35,1.17-0.98,2.24-1.45,3.38c-0.06,0.06-0.09,0.16-0.09,0.22c-0.16,0.35-0.28,0.79-0.44,1.2
	l1.14-0.32c3.25-0.63,6.41-1.23,9.53-1.93c4.99-1.14,9.09,0.51,12.6,3.91c1.14,1.14,2.24,2.34,3.32,3.57l1.23,1.64
	c1.77-2.94,3.47-5.97,5.3-8.87c0.41-0.63,1.33-1.01,2.12-1.29c2.53-0.92,5.05-1.77,7.61-2.56c0.82-0.25,1.77-0.38,2.62-0.32
	c2.72,0.25,4.64-0.92,6.38-2.84c0.41-0.47,1.36-0.69,2.02-0.66c0.41,0.06,0.98,0.82,1.07,1.36c0.13,0.73-0.03,1.58-0.09,2.37
	c0,0.41-0.13,0.82,0,1.2c0.51,1.64-0.06,2.75-1.74,3.19c-0.73,0.22-1.45,0.41-2.21,0.54c-1.36,0.16-1.99,0.92-2.53,2.15
	c-1.7,4.07-3.54,8.05-5.37,12.03c-0.41,0.85-1.17,1.48-1.61,2.34c-1.7,3.19-5.18,3.91-7.89,5.71c-1.74,1.17-3.35,2.53-5.11,3.6
	c-4.42,2.59-7.14,7.17-11.49,9.88c-4.26,2.62-8.34,5.59-12.6,8.3c-1.23,0.79-2.68,1.36-4.1,1.7c-3.41,0.92-6.38,2.68-9.31,4.51
	c-3.54,2.18-7.2,2.02-10.96,0.82c-2.49-0.79-4.96-1.7-7.51-2.4c-2.81-0.79-5.68-1.36-8.46-1.99c0.38,0.98,0.98,1.52,2.43,1.86
	c3.25,0.79,6.54,1.48,9.82,2.3c1.04,0.25,2.02,0.6,3,1.07c2.9,1.33,5.9,1.39,8.9,0.66c1.55-0.38,2.97-1.23,4.36-2.05
	c3-1.77,6.19-3.03,9.47-4.17c2.18-0.76,4.1-2.18,6.12-3.38c5.65-3.38,10.96-7.29,15.88-11.68c0.38-0.38,0.73-0.85,1.14-1.23
	c3.13-2.87,6.54-5.34,10.2-7.48c1.93-1.11,3.73-2.49,5.65-3.66c0.28-0.19,0.82-0.22,1.14-0.03c3.63,1.86,7.32,3.66,10.83,5.71
	c2.18,1.29,4.29,2.34,6.91,2.75c4.89,0.79,9.76,1.99,14.59,3.09c5.94,1.36,11.78,2.84,17.68,4.17c0.54,0.16,1.17-0.16,1.77-0.19
	c1.2-0.06,2.43-0.32,3.63-0.09c2.53,0.44,5.02,1.33,7.58,1.67c2.72,0.35,5.53,0.44,8.27,0.38c0.95-0.03,1.93-0.66,2.81-1.17
	c1.86-1.04,3.66-2.18,5.53-3.28c1.77-1.07,3.44-0.22,5.08,0.28c0.38,0.13,0.66,0.69,0.79,1.1c0.38,1.26,1.17,2.15,2.12,2.97
	c0.51,0.44,0.82,1.29,0.85,1.96c0.06,1.86-0.09,3.69-0.09,5.53c0,1.83-0.03,1.89-1.8,1.93c-0.22,0.03-0.41,0.03-0.6,0.03
	c-0.19,0.66-0.22,1.33-0.47,1.86c-0.79,1.67-1.58,1.89-3.35,1.26c-1.83-0.63-3.57-1.2-5.59-0.13c-2.75,1.42-5.78,1.26-8.27-0.51
	c-2.56-1.77-5.11-1.45-7.86-1.17c-1.99,0.25-4.01,0.44-5.97,0.54c-0.63,0.03-1.42-0.03-1.83-0.44c-1.01-0.88-2.08-0.69-3.25-0.57
	c-1.33,0.09-2.65,0.19-3.95,0.19c-4.77,0.03-9.5,0.06-14.27,0.06c-2.68-0.03-5.4,0.13-7.99-1.2c-0.95-0.47-2.24-0.35-3.41-0.41
	c-1.58-0.13-3.16-0.16-4.7-0.32c-0.63-0.06-1.36-0.19-1.83-0.54c-3.57-2.59-7.73-3.63-11.9-4.83c-5.02-1.45-10.04-2.97-15.03-4.61
	c-1.55-0.51-3-1.36-4.39-2.05c1.26,5.05,3,9.98,7.51,13.42c1.45,1.11,2.62,2.59,3.79,4.01c0.63,0.76,1.26,1.04,2.18,0.76
	c0.38-0.13,0.85-0.13,1.26-0.22c0.85-0.22,1.26,0.09,1.36,0.98c0.09,1.11,0.28,2.18,0.51,3.28c0.06,0.38,0.32,0.69,0.51,1.07
	c0.25-0.13,0.44-0.16,0.47-0.22c0.85-2.53,2.97-2.49,4.99-2.49c2.37,0,4.74,0.13,7.07,0.25c0.38,0,0.76,0.32,1.07,0.51
	c0.19,0.13,0.28,0.35,0.44,0.51c2.24,2.65,2.46,2.68,5.08,0.47c0.98-0.79,1.99-1.01,3.28-0.98c4.14,0.09,8.27,0.13,12.41-0.09
	c1.17-0.03,2.3-0.98,3.47-1.42c0.66-0.25,1.39-0.51,2.05-0.44c6.82,1.04,13.7,0.6,20.52,0.32c2.43-0.09,4.86,0.25,7.26,0.47
	c0.35,0.06,0.63,0.54,0.92,0.85c3.76,0.19,7.58,0.22,11.43,0.57c2.18,0.19,4.39,0.69,6.5,1.26c3.63,0.95,6.16,3.22,7.29,6.85
	c0.19,0.6,0.19,1.26,0.19,1.89C405.63,301.47,405.63,303.8,405.82,306.17z"/>
<path class="st0" d="M78.21,294.65c8.53,2.17,11.65,9.11,9.43,17.86l-4.7,18.57l-40.61-10.31l4.75-18.74
	c2.01-7.94,7.06-12,14.02-10.24c3.48,0.88,5.85,3.22,6.8,6.32C70.16,295.22,73.74,293.51,78.21,294.65z M59.63,300.25
	c-2.55-0.65-4.26,0.47-5.16,4.04l-2.63,10.39l7.72,1.96l2.74-10.8C63.14,302.44,61.89,300.82,59.63,300.25z M76.2,303.08
	c-3.48-0.88-5.69,0.54-6.7,4.51l-2.75,10.86l10.5,2.66l2.75-10.86C81,306.29,79.39,303.9,76.2,303.08z"/>
<path class="st0" d="M99.36,235.69c11.75,6.7,15.03,17.37,9.6,26.89c-5.46,9.57-16.16,12.14-27.91,5.45
	c-11.75-6.7-15.03-17.37-9.57-26.95C76.91,231.56,87.61,228.99,99.36,235.69z M95.16,243.28c-7.38-4.21-13.62-3.05-16.55,2.08
	c-2.93,5.13-0.76,10.87,6.62,15.08c7.38,4.21,13.62,3.05,16.55-2.08C104.71,253.23,102.55,247.49,95.16,243.28z"/>
<path class="st0" d="M156.27,203.47l-6.86,6.86l-15.99-5.35l-6.01,6.01l10.66,10.67l-5.96,5.97l-29.62-29.64l13.89-13.89
	c5.62-5.62,13.36-7.18,19.66-0.87c4.44,4.45,5.32,9.16,3.01,14.43L156.27,203.47z M130.03,189.49c-2.67-2.67-5.39-2.15-8.03,0.49
	l-7.8,7.8l7.62,7.62l7.8-7.8C132.39,194.84,132.61,192.08,130.03,189.49z"/>
<path class="st0" d="M204.94,172.37l-6.55,3.71l-24.74-12.26c-1.66-0.85-3.9-1.99-4.9-2.66c0.77,1.35,3.47,5.88,4.62,7.91
	l9.09,16.03l-7.23,4.1l-20.67-36.44l7.02-3.98l23.92,11.9c1.66,0.85,3.9,1.99,4.9,2.66c-0.77-1.35-3.47-5.88-4.62-7.91l-8.74-15.41
	l7.23-4.1L204.94,172.37z"/>
<path class="st0" d="M268.58,120.03l-11.91,2.15l5.98,33.1l-8.3,1.5l-5.98-33.1l-11.91,2.15l-1.47-8.13l32.12-5.8L268.58,120.03z"/>
<path class="st0" d="M317.05,110.69c-10.99-0.81-19.2,6.75-20.21,20.23c-0.98,13.5,5.94,22.05,16.93,22.84
	c10.92,0.81,19.16-6.75,20.14-20.26C334.92,120.03,328,111.48,317.05,110.69z M325.27,133.01c-0.62,8.48-4.88,12.91-10.77,12.47
	c-5.87-0.43-9.6-5.55-8.98-14.03c0.62-8.48,4.86-12.91,10.75-12.47C322.16,119.41,325.89,124.53,325.27,133.01z"/>
<path class="st0" d="M412.33,145.72l3.23-7.54l-27.75-11.88l-16.5,38.5l7.76,3.33l6.94-16.23l11.68,5l3.21-7.49l-11.68-4.98
	l3.11-7.28L412.33,145.72z"/>
<path class="st0" d="M442.95,154.84l-23.99,34.38l6.92,4.81l23.97-34.36L442.95,154.84z"/>
<path class="st0" d="M492.49,212.72c2.85-6.42,2.68-12.5-3.18-18.82c-7.49-8.09-19.23-7.71-28.59,0.96c-9.67,9-10.8,20.11-3.3,28.21
	c6.63,7.16,15.99,8.26,23.9,0.93l4.02-3.74l-10.27-11.09l-5.75,5.32l4.55,4.91c-3.02,2.13-6.35,2.51-10.27-1.72
	c-4.29-4.65-2.63-11.21,3.04-16.45c5.7-5.29,12.19-6.39,16.5-1.75c3.11,3.35,2.71,6.35,1.48,9.6L492.49,212.72z"/>
<path class="st0" d="M532.12,258.07l-14.22,7.4l-7.97-15.35l14.25-7.4l-3.88-7.49l-37.19,19.32l3.88,7.47l15.61-8.09l7.97,15.35
	l-15.64,8.09l3.9,7.49l37.19-19.3L532.12,258.07z"/>
<path class="st0" d="M547.52,297.6l-8.07,1.77l2.59,11.83l-32.88,7.18l1.8,8.24l32.88-7.18l2.59,11.83l8.07-1.77L547.52,297.6z"/>
<path d="M297.62,79.52C138.28,79.52,8.61,209.18,8.61,368.56c0,159.34,129.67,289.01,289.01,289.01
	c159.37,0,289.04-129.67,289.04-289.01C586.66,209.18,457,79.52,297.62,79.52z M297.62,647.97
	c-154.07,0-279.41-125.34-279.41-279.41c0-154.1,125.34-279.47,279.41-279.47c154.13,0,279.47,125.37,279.47,279.47
	C577.1,522.63,451.76,647.97,297.62,647.97z"/>
<path class="st1" d="M297.62,167.48c-110.88,0-201.08,90.17-201.08,201.08c0,110.85,90.2,201.08,201.08,201.08
	c110.91,0,201.11-90.23,201.11-201.08C498.73,257.64,408.53,167.48,297.62,167.48z M403.58,312.04c-3.22,3.16-6.72,5.94-10.7,8.11
	c-1.14,0.63-2.3,1.52-3.13,2.56c-4.1,5.27-9.12,9.57-14.52,13.42c-1.83,1.29-3.5,2.78-5.21,4.17c-0.25,0.19-0.6,0.41-0.6,0.63
	l-10.89,10.51c0,0-2.15,1.07-2.75,2.68c-0.63,1.61-4.64,15.12-5.56,16.39l-0.98,1.86c-1.7,2.9-2.62,6.09-3.28,9.35
	c-0.19,0.85-0.44,1.58-1.29,1.67c-0.73,0.06-1.67-0.03-2.18-0.47c-0.6-0.47-0.88-1.39-1.2-2.15c-0.35-0.85-0.51-1.77-0.85-2.62
	c-1.33-3.22-2.08-6.38,0.35-9.53c0.66-0.82,0.92-2.12,1.01-3.22c0.22-2.94-0.98-5.46-2.81-7.7c-0.69-0.82-1.36-1.64-2.05-2.43
	c-2.84-3.28-1.33-6.88,1.2-9.31c0.57-0.54,1.74-0.6,2.65-0.6c1.48,0,2.97,0.22,4.45,0.28c0.41,0,0.98-0.19,1.26-0.47
	c1.33-1.36,2.65-2.75,3.88-4.2c0.73-0.85,1.23-1.86,1.86-2.75c0.54-0.79,0.82-1.33,1.04-1.7l0.19-0.19
	c0.03-0.09,0.09-0.19,0.19-0.22l0.03-0.03l0.79-0.98l0.6-0.66l4.04-4.93l-5.84,4.23l-7.92,0.6l-0.38,0.03
	c-0.88,0-1.74,0.09-2.65,0.19c-2.9,0.38-5.87,0.6-8.78,1.07c-0.95,0.19-2.05,0.79-2.65,1.52c-2.68,3.25-5.78,5.81-9.95,6.85
	c-1.86,0.47-3.22,1.55-4.29,3.19c-1.67,2.59-3.5,5.08-5.37,7.51c-1.33,1.7-1.29,3.73-1.77,5.68c-0.22,0.82-0.47,1.64-0.47,2.49
	c-0.03,1.17-0.09,2.46,0.32,3.44c2.65,5.84,4.39,12.06,7.74,17.52c0.51,0.82,0.32,1.29-0.47,1.74c-3.22,1.74-6.31,3.6-8.97,6.16
	c-0.66,0.6-1.61,0.95-2.43,1.33c-3.38,1.55-6.79,3-10.17,4.55c-0.44,0.22-0.85,0.85-0.95,1.36c-0.98,4.55-1.52,9.12-1.36,13.86
	c0.22,6.47-1.74,12.5-4.48,18.34c-0.63,1.29-1.2,2.65-1.64,4.01c-0.19,0.54-0.09,1.2,0.06,1.74c1.74,6.35,1.7,12.88,1.17,19.32
	c-0.32,4.07-1.58,8.02-2.37,12.03c-0.6,2.94-1.17,5.94-1.74,8.9c-0.06,0.25-0.13,0.54-0.06,0.76c1.17,3.6-0.19,6.98-0.79,10.42
	c-0.92,5.53-0.73,10.99,0,16.48c0.13,0.98,0.85,2.02,1.55,2.87c0.95,1.17,1.42,2.34,0.95,3.85c-0.51,1.45-1.1,2.87-1.33,4.39
	c-0.38,2.24-0.54,4.48-0.76,6.72c-0.35,3.6-0.69,7.23-1.07,10.83c-0.03,0.25-0.13,0.6-0.32,0.66c-1.29,0.47-0.98,1.52-0.92,2.46
	c0.13,2.9,0.38,5.81,0.32,8.71c0,1.1-0.6,2.24-1.07,3.32c-0.44,1.14-1.2,2.15-1.52,3.32c-0.54,1.7-1.33,2.49-3.09,2.59
	c-0.95,0.09-1.86,0.25-2.78,0.38c-0.35,0.03-0.69,0.09-1.04,0.03c-2.18-0.6-4.39-1.14-6.6-1.77c-0.57-0.19-1.33-0.54-1.55-1.01
	c-0.6-1.42-1.74-2.15-3.06-2.72c-1.39-0.66-1.96-2.02-1.58-3.54c0.54-2.12,0.88-4.26,1.48-6.35c0.47-1.48,1.17-2.9,1.8-4.36
	c0.82-1.77,1.61-3.47,0.98-5.49c-0.16-0.44,0.19-1.04,0.35-1.55c1.74-4.67,3.73-9.25,5.05-14.05c0.63-2.3,0.38-4.86,1.17-7.23
	c0.13-0.38-0.06-0.85-0.13-1.26c-0.09-0.76-0.35-1.52-0.25-2.27c0.54-4.23-0.35-8.3-1.26-12.38c-0.57-2.49-0.92-5.02-1.36-7.55
	c0-0.16-0.09-0.38,0-0.54c1.26-2.68-0.09-5.34-0.41-7.96c-0.76-6.12-2.24-12.22-2.46-18.37c-0.32-7.48-0.47-15.15,2.21-22.42
	c0.76-2.08,0.28-4.14,0.06-6.19c-0.28-2.34-0.63-4.64-0.88-7.01c-0.32-2.4,0.13-4.77,1.2-6.95c1.07-2.12,0.88-4.26,0.57-6.57
	c-1.74,0.13-1.7,0.13-1.8-1.52c-0.19-2.62-0.35-5.3-0.51-7.92c-0.03-0.16,0-0.38-0.09-0.51c-1.86-2.46-1.17-5.3-1.17-8.05
	c-0.03-1.83-0.28-3.69-0.54-5.53c-0.66-4.42-1.55-8.81-2.05-13.26c-0.57-5.24-0.88-10.55-1.29-15.82c-0.03-0.35-0.09-0.69-0.19-1.01
	c-0.32-1.36-0.13-2.4,1.01-3.41c2.87-2.53,2.97-2.65,1.86-6.41c-0.85-2.94-2.12-5.75-3.35-8.56c-0.57-1.29-0.69-2.37,0.32-3.38
	c2.37-2.34,0.85-4.74,0-7.07c-0.19-0.51-1.01-0.79-1.61-1.17c-0.69-0.41-1.48-0.69-2.08-1.2c-0.44-0.35-0.92-1.1-0.82-1.55
	c0.28-1.42-0.38-2.3-1.29-3.13c-3.66-3.28-7.32-6.57-10.99-9.82c-3.32-2.97-6.82-5.75-9.95-8.87c-2.94-2.9-5.43-6.25-8.15-9.38
	c-2.21-2.56-4.45-5.05-6.57-7.67c-0.98-1.2-1.74-2.62-2.75-4.14l-1.99-4.14c-1.7-3.35-2.72-6.6-5.08-9.22
	c-2.27-2.56-3-6.03-3.47-9.35c-0.44-3.03-0.38-6.12-0.35-9.19c0-0.88,0.47-1.99,1.14-2.62c2.15-2.12,4.48-4.1,6.76-6.06
	c2.18-1.89,4.83-1.61,7.42-1.45c2.27,0.13,4.61,0.57,6.88,0.44c2.65-0.16,4.23-2.34,6.12-3.88c2.46-2.08,3.13-4.93,3.82-7.86
	c0.98-4.23,2.15-8.4,3.35-12.57c1.1-3.85,1.17-3.85,0.6-7.99c-0.25,0.03-0.47,0.06-0.69,0.13c-4.48,1.64-8.97,3.28-13.42,4.89
	c-2.56,0.92-5.08,1.74-7.64,2.53c-1.7,0.54-2.65,1.45-2.97,3.35c-0.85,4.77-2.18,9.47-2.9,14.27c-0.38,2.27-1.42,3.41-3.35,4.33
	c-2.24,1.1-4.55,2.3-6.47,3.82c-1.89,1.48-3.35,3.5-5.02,5.27c-0.41,0.44-0.79,0.95-1.2,1.45c-0.6-0.76-0.6-0.76,0.22-2.21
	c0.41-0.66,0.82-1.36,1.14-1.93c-0.47-0.22-1.04-0.28-1.23-0.6c-0.19-0.32-0.03-0.88,0.13-1.26c0.35-0.66,0.76-1.26,0.95-2.05
	c-0.73,1.01-1.42,2.05-2.24,3c-0.28,0.32-0.85,0.41-1.33,0.6c0.03-0.47-0.09-1.04,0.13-1.42c0.57-0.88,1.29-1.67,1.89-2.56
	c0.6-0.88,1.14-1.83,1.55-2.81c-1.39,0.95-1.8,2.81-3.35,3.6c-0.13-0.09-0.28-0.19-0.41-0.28c0.51-1.2,1.07-2.37,1.61-3.57
	l-0.13-0.13c-0.92,1.01-1.86,1.99-2.78,3c-0.57,0.57-1.04,0.98-1.71,0c-0.22-0.32-0.76-0.44-1.17-0.6c-0.82-0.32-1.2-0.92-0.76-1.7
	c1.14-2.02,2.34-4.04,3.57-6.03c0.22-0.35,0.76-0.57,1.2-0.63c2.87-0.47,5.3-1.89,7.61-3.5c0.73-0.47,1.48-0.88,2.15-1.42
	c0.51-0.44,0.98-0.98,1.26-1.58c1.74-3.73,3.41-7.51,5.18-11.21c0.19-0.47,0.88-0.98,1.33-0.98c4.74-0.03,8.56-2.65,12.79-4.17
	c4.8-1.67,9.63-3.19,14.37-5.02c1.96-0.73,3.63-2.15,5.4-3.32c0.28-0.19,0.44-0.63,0.6-0.95c0.98-1.64,1.64-3.54,2.9-4.93
	c2.05-2.24,4.39-4.29,6.76-6.25c1.64-1.36,3.82-1.36,5.78-1.2c3.13,0.22,6.22,0.85,9.35,1.33c1.2,0.19,2.37,0.47,3.63,0.69
	c-0.16,0.54-0.25,0.85-0.41,1.26c0.88,0.51,1.8,0.98,2.65,1.52c0.66,0.41,1.61,0.54,1.36,1.7c-0.06,0.13,0.44,0.41,0.69,0.57
	c1.23,0.69,2.56,1.29,3.66,2.15c0.92,0.69,1.7,1.64,2.4,2.62c0.79,1.1,0.88,2.3,0,3.54c-0.51,0.73-0.51,1.45-0.03,2.34
	c0.85,1.64,1.55,3.41,0.98,5.27c-0.22,0.76-0.95,1.42-1.42,2.12c-0.19,0.28-0.41,0.51-0.54,0.82c-0.19,0.38-0.28,0.82-0.28,1.26
	c-0.09,2.49-0.76,4.64-3.44,5.46c0.35,1.48,0.66,2.78,0.98,4.1c0.19,0.69,0.09,1.36-0.69,1.52c-1.61,0.35-1.77,1.52-1.8,2.81
	c-0.03,0.88,0.06,1.89-1.2,2.27c-0.28,0.09-0.57,0.79-0.57,1.23c0,1.2-0.47,2.02-1.67,2.24c-1.11,0.19-1.48,0.88-1.74,1.89
	c-0.35,1.17-0.98,2.24-1.45,3.38c-0.06,0.06-0.09,0.16-0.09,0.22c-0.16,0.35-0.28,0.79-0.44,1.2l1.14-0.32
	c3.25-0.63,6.41-1.23,9.53-1.93c4.99-1.14,9.09,0.51,12.6,3.91c1.14,1.14,2.24,2.34,3.32,3.57l1.23,1.64
	c1.77-2.94,3.47-5.97,5.3-8.87c0.41-0.63,1.33-1.01,2.12-1.29c2.53-0.92,5.05-1.77,7.61-2.56c0.82-0.25,1.77-0.38,2.62-0.32
	c2.72,0.25,4.64-0.92,6.38-2.84c0.41-0.47,1.36-0.69,2.02-0.66c0.41,0.06,0.98,0.82,1.07,1.36c0.13,0.73-0.03,1.58-0.09,2.37
	c0,0.41-0.13,0.82,0,1.2c0.51,1.64-0.06,2.75-1.74,3.19c-0.73,0.22-1.45,0.41-2.21,0.54c-1.36,0.16-1.99,0.92-2.53,2.15
	c-1.7,4.07-3.54,8.05-5.37,12.03c-0.41,0.85-1.17,1.48-1.61,2.34c-1.7,3.19-5.18,3.91-7.89,5.71c-1.74,1.17-3.35,2.53-5.11,3.6
	c-4.42,2.59-7.14,7.17-11.49,9.88c-4.26,2.62-8.34,5.59-12.6,8.3c-1.23,0.79-2.68,1.36-4.1,1.7c-3.41,0.92-6.38,2.68-9.31,4.51
	c-3.54,2.18-7.2,2.02-10.96,0.82c-2.49-0.79-4.96-1.7-7.51-2.4c-2.81-0.79-5.68-1.36-8.46-1.99c0.38,0.98,0.98,1.52,2.43,1.86
	c3.25,0.79,6.54,1.48,9.82,2.3c1.04,0.25,2.02,0.6,3,1.07c2.9,1.33,5.9,1.39,8.9,0.66c1.55-0.38,2.97-1.23,4.36-2.05
	c3-1.77,6.19-3.03,9.47-4.17c2.18-0.76,4.1-2.18,6.12-3.38c5.65-3.38,10.96-7.29,15.88-11.68c0.38-0.38,0.73-0.85,1.14-1.23
	c3.13-2.87,6.54-5.34,10.2-7.48c1.93-1.11,3.73-2.49,5.65-3.66c0.28-0.19,0.82-0.22,1.14-0.03c3.63,1.86,7.32,3.66,10.83,5.71
	c2.18,1.29,4.29,2.34,6.91,2.75c4.89,0.79,9.76,1.99,14.59,3.09c5.94,1.36,11.78,2.84,17.68,4.17c0.54,0.16,1.17-0.16,1.77-0.19
	c1.2-0.06,2.43-0.32,3.63-0.09c2.53,0.44,5.02,1.33,7.58,1.67c2.72,0.35,5.53,0.44,8.27,0.38c0.95-0.03,1.93-0.66,2.81-1.17
	c1.86-1.04,3.66-2.18,5.53-3.28c1.77-1.07,3.44-0.22,5.08,0.28c0.38,0.13,0.66,0.69,0.79,1.1c0.38,1.26,1.17,2.15,2.12,2.97
	c0.51,0.44,0.82,1.29,0.85,1.96c0.06,1.86-0.09,3.69-0.09,5.53c0,1.83-0.03,1.89-1.8,1.93c-0.22,0.03-0.41,0.03-0.6,0.03
	c-0.19,0.66-0.22,1.33-0.47,1.86c-0.79,1.67-1.58,1.89-3.35,1.26c-1.83-0.63-3.57-1.2-5.59-0.13c-2.75,1.42-5.78,1.26-8.27-0.51
	c-2.56-1.77-5.11-1.45-7.86-1.17c-1.99,0.25-4.01,0.44-5.97,0.54c-0.63,0.03-1.42-0.03-1.83-0.44c-1.01-0.88-2.08-0.69-3.25-0.57
	c-1.33,0.09-2.65,0.19-3.95,0.19c-4.77,0.03-9.5,0.06-14.27,0.06c-2.68-0.03-5.4,0.13-7.99-1.2c-0.95-0.47-2.24-0.35-3.41-0.41
	c-1.58-0.13-3.16-0.16-4.7-0.32c-0.63-0.06-1.36-0.19-1.83-0.54c-3.57-2.59-7.73-3.63-11.9-4.83c-5.02-1.45-10.04-2.97-15.03-4.61
	c-1.55-0.51-3-1.36-4.39-2.05c1.26,5.05,3,9.98,7.51,13.42c1.45,1.11,2.62,2.59,3.79,4.01c0.63,0.76,1.26,1.04,2.18,0.76
	c0.38-0.13,0.85-0.13,1.26-0.22c0.85-0.22,1.26,0.09,1.36,0.98c0.09,1.11,0.28,2.18,0.51,3.28c0.06,0.38,0.32,0.69,0.51,1.07
	c0.25-0.13,0.44-0.16,0.47-0.22c0.85-2.53,2.97-2.49,4.99-2.49c2.37,0,4.74,0.13,7.07,0.25c0.38,0,0.76,0.32,1.07,0.51
	c0.19,0.13,0.28,0.35,0.44,0.51c2.24,2.65,2.46,2.68,5.08,0.47c0.98-0.79,1.99-1.01,3.28-0.98c4.14,0.09,8.27,0.13,12.41-0.09
	c1.17-0.03,2.3-0.98,3.47-1.42c0.66-0.25,1.39-0.51,2.05-0.44c6.82,1.04,13.7,0.6,20.52,0.32c2.43-0.09,4.86,0.25,7.26,0.47
	c0.35,0.06,0.63,0.54,0.92,0.85c3.76,0.19,7.58,0.22,11.43,0.57c2.18,0.19,4.39,0.69,6.5,1.26c3.63,0.95,6.16,3.22,7.29,6.85
	c0.19,0.6,0.19,1.26,0.19,1.89c0.13,2.34,0.13,4.67,0.32,7.04C405.98,308.51,405.25,310.4,403.58,312.04z"/>
<path class="st0" d="M116.6,552.93l-4.84-5.75l10.72-9.04c1.58-1.34,5.37-4.38,6.49-5.33c-1.43,0.5-4.24,1.4-6.53,2.07L104.55,540
	l8.05-16.76c1.05-2.15,2.4-4.77,3.15-6.09c-1.13,0.95-4.77,4.16-6.35,5.49l-10.72,9.04l-4.74-5.62l29.19-24.61l4.67,5.54
	l-8.16,17.13c-1.01,2.11-2.49,4.84-3.22,6.08c1.4-0.54,4.22-1.52,6.51-2.19l18.1-5.36l4.78,5.66L116.6,552.93z"/>
<path class="st0" d="M160.96,568.62c-6.98,8.6-15.42,9.97-22.85,3.95c-7.05-5.71-7.88-14.4-0.88-23.04l13.51-16.65l5.84,4.74
	l-13.44,16.56c-3.85,4.74-4.04,9.58-0.32,12.59c3.71,3.01,8.38,1.95,12.23-2.8l13.51-16.64l5.84,4.73L160.96,568.62z"/>
<path class="st0" d="M188.82,604.44l-7.21-4.05l1.59-8.86l-11.98-6.73l-6.74,5.97l-7.02-3.94l31.23-26.24l6.36,3.58L188.82,604.44z
	 M184.5,583.94l1.28-7.22c0.44-2.32,0.9-4.68,1.27-6.1c-1.02,1.05-2.8,2.68-4.55,4.26l-5.5,4.85L184.5,583.94z"/>
<path class="st0" d="M236.58,581.88l-21.55,16.45l-5.41,14.11l-7.02-2.69l5.35-13.96l-4.98-26.79l8.08,3.1l1.72,10.36
	c0.43,2.62,0.99,6.87,1.14,8.44c1.16-1.07,4.33-3.77,6.49-5.52l8.21-6.55L236.58,581.88z"/>
<path class="st0" d="M279.83,596.85l-10.7-1.46l-4.15,30.37l-7.45-1.01l4.14-30.37l-10.69-1.46l1.02-7.46l28.84,3.94L279.83,596.85z
	"/>
<path class="st0" d="M317.21,626.96l-7.52,0.22l-0.47-16.03l-15.4,0.46l0.47,16.02l-7.51,0.23l-1.12-38.16l7.51-0.22l0.43,14.61
	l15.4-0.46l-0.43-14.61l7.52-0.22L317.21,626.96z"/>
<path class="st0" d="M363.52,618.49l-8.09,1.7l-4.64-7.72l-13.45,2.82l-1.14,8.93l-7.88,1.66l6.24-40.31l7.15-1.5L363.52,618.49z
	 M346.78,605.9l-3.78-6.28c-1.2-2.03-2.4-4.12-3.06-5.43c-0.07,1.47-0.34,3.86-0.62,6.2l-0.94,7.28L346.78,605.9z"/>
<path class="st0" d="M380.5,612.35l-7.1,2.46l-12.53-36.08l7.1-2.47L380.5,612.35z"/>
<path class="st0" d="M426.53,573.19c4.89,8.51,2.12,16.52-5.42,20.85c-8.52,4.9-18.05,1.57-24.05-8.89
	c-5.78-10.07-3.84-20.5,4.68-25.39c6.66-3.82,12.02-2.69,17.09,1.19l-4.7,6.16c-2.62-1.76-5.17-2.75-8.71-0.72
	c-4.89,2.81-5.19,8.76-1.66,14.91c3.5,6.1,8.93,8.96,13.81,6.15c4.47-2.57,4.79-5.58,3.5-8.68l-5.17,2.97l-3.56-6.19l11.69-6.72
	L426.53,573.19z"/>
<path class="st0" d="M442.98,530.62l3.31,26.91l9.45,11.8l-5.87,4.7l-9.34-11.67l-25.63-9.26l6.75-5.4l9.81,3.75
	c2.48,0.95,6.43,2.61,7.86,3.29c-0.34-1.54-1.07-5.64-1.48-8.39l-1.51-10.39L442.98,530.62z"/>
<path class="st0" d="M497.34,526.82l-4.94,5.67l-10.57-9.22c-1.56-1.36-5.15-4.63-6.26-5.6c0.72,1.34,2.03,3.98,3.04,6.15l7.77,16.9
	l-17.8-5.41c-2.28-0.71-5.08-1.65-6.5-2.18c1.11,0.97,4.84,4.08,6.4,5.44l10.56,9.22l-4.84,5.55l-28.78-25.11l4.77-5.46l18.19,5.46
	c2.24,0.67,5.16,1.72,6.5,2.25c-0.75-1.3-2.14-3.94-3.15-6.1l-8.05-17.07l4.87-5.59L497.34,526.82z"/>
</svg>
